<svg width="120" height="120" viewBox="0 0 120 120" fill="none" xmlns="http://www.w3.org/2000/svg">
<g clip-path="url(#clip0_4978_19970)">
<path d="M120 0H30.0016C25.8562 0 22.1047 1.68033 19.3889 4.39946L4.39946 19.3856L4.38643 19.3986C1.67707 22.1145 0 25.8627 0 30.0016V120.003L120 0Z" fill="#9DCE6E"/>
<path d="M120 0V90.0016C120 94.1471 118.32 97.8985 115.601 100.614L100.611 115.604L100.598 115.617C97.8855 118.326 94.1373 120.003 89.9984 120.003H0L120 0Z" fill="#80C342"/>
<path d="M20.5705 5.57245C23.0877 3.05521 26.4386 1.66797 30.0012 1.66797H118.339V90.0056C118.339 93.5681 116.952 96.9157 114.434 99.4362C111.917 101.957 108.566 103.341 105.004 103.341H16.666V14.9999C16.666 11.4373 18.0533 8.08968 20.5705 5.56919" fill="white"/>
<path fill-rule="evenodd" clip-rule="evenodd" d="M75.5522 27.6942H74.5981C74.5981 27.6942 72.1329 27.971 70.6512 25.8347C69.9544 24.7503 62.8781 14.2092 62.8781 14.2092L57.9413 27.6942H54.7109L60.2827 11.8711H65.1478L75.5554 27.6942H75.5522Z" fill="#FCAF17"/>
<path fill-rule="evenodd" clip-rule="evenodd" d="M59.4453 27.6942H60.3994C60.3994 27.6942 62.8646 27.971 64.3495 25.8347C65.0497 24.7503 72.1227 14.2092 72.1227 14.2092L77.0594 27.6942H80.2898L74.718 11.8711H69.8562L59.4453 27.6942Z" fill="#80C342"/>
<path d="M67.5014 21.1187L65.6191 18.3084L67.5014 15.4492L69.3803 18.3084L67.5014 21.1187Z" fill="#0095DA"/>
<path fill-rule="evenodd" clip-rule="evenodd" d="M41.8944 32.0619C41.6404 32.0619 41.432 32.0684 41.2789 32.0781C41.1226 32.0814 40.9989 32.1009 40.9109 32.1302C40.8263 32.1563 40.7644 32.1954 40.7221 32.2507C40.683 32.2996 40.6504 32.368 40.6179 32.4526L37.6187 41.0757C37.5568 41.2548 37.521 41.3916 37.5047 41.499C37.4917 41.6032 37.5047 41.6879 37.5568 41.7465C37.6089 41.8019 37.7001 41.8377 37.8271 41.854C37.9541 41.8703 38.1364 41.8768 38.3677 41.8768C38.5826 41.8768 38.7552 41.8735 38.8854 41.8605C39.0222 41.8507 39.1232 41.8344 39.1948 41.8084C39.2697 41.7791 39.3218 41.74 39.3544 41.6944C39.3902 41.6456 39.4195 41.5837 39.439 41.5153L40.0545 39.6135H43.705L44.3595 41.5674C44.3758 41.6325 44.4018 41.6846 44.4344 41.727C44.4637 41.7693 44.5191 41.7986 44.594 41.8247C44.6656 41.8475 44.7763 41.8572 44.9164 41.8605C45.0629 41.8735 45.2616 41.8768 45.5188 41.8768C45.7761 41.8768 45.9584 41.8703 46.0985 41.854C46.2385 41.8475 46.3362 41.8149 46.3915 41.7628C46.4436 41.7074 46.4664 41.626 46.4502 41.5218C46.4371 41.4144 46.398 41.2711 46.3362 41.092L43.3337 32.4722C43.3044 32.3777 43.2653 32.3028 43.223 32.2475C43.1807 32.1889 43.1123 32.153 43.0113 32.127C42.9169 32.0977 42.7834 32.0781 42.6075 32.0749C42.435 32.0651 42.1972 32.0586 41.9009 32.0586L41.8944 32.0619ZM40.4876 38.0928L41.8683 33.9636L43.2426 38.0928H40.4843H40.4876ZM55.9199 32.0781C55.7375 32.0781 55.591 32.0879 55.477 32.1009C55.363 32.1107 55.2686 32.1302 55.2002 32.1628C55.1286 32.1921 55.0797 32.2279 55.0504 32.267C55.0211 32.3061 55.0048 32.3517 55.0048 32.3973V36.9595C55.0048 37.308 55.0048 37.6694 55.0146 38.0505C55.0211 38.4315 55.0374 38.7962 55.0439 39.1446C54.9527 38.946 54.8615 38.7473 54.7671 38.5454L54.474 37.9365C54.3763 37.7248 54.2689 37.5164 54.1549 37.3112L53.8358 36.6697L51.9405 33.1169C51.8461 32.9216 51.7549 32.7587 51.6637 32.6285C51.5758 32.4917 51.4716 32.3875 51.3706 32.3093C51.2697 32.2344 51.1557 32.1856 51.0222 32.153C50.8919 32.1172 50.7356 32.1009 50.5435 32.1009H49.4819C49.28 32.1009 49.1107 32.1595 48.9706 32.28C48.8371 32.3973 48.7655 32.5731 48.7655 32.8076V41.5446C48.7655 41.5967 48.7785 41.6391 48.8013 41.6814C48.8274 41.7237 48.8729 41.7563 48.9381 41.7856C49.0065 41.8117 49.0944 41.8312 49.2084 41.8475C49.3256 41.8638 49.4689 41.8703 49.6447 41.8703C49.8206 41.8703 49.9736 41.8638 50.0876 41.8475C50.2048 41.8312 50.2928 41.8149 50.3611 41.7856C50.4295 41.7563 50.4784 41.7237 50.5044 41.6814C50.5337 41.6391 50.5468 41.5967 50.5468 41.5446V36.4581C50.5468 36.077 50.5435 35.7091 50.5337 35.3509C50.524 34.9927 50.5109 34.6344 50.5044 34.2697C50.6184 34.5661 50.7487 34.8689 50.8952 35.188C51.0417 35.4974 51.1818 35.7905 51.3251 36.0575L53.7413 40.6035C53.8683 40.8543 53.9823 41.0594 54.08 41.219C54.1777 41.3753 54.2819 41.499 54.3861 41.5935C54.4968 41.6846 54.6141 41.7465 54.7411 41.7823C54.8713 41.8149 55.0244 41.8344 55.2002 41.8344H56.0436C56.1381 41.8344 56.2293 41.8214 56.3204 41.7954C56.4181 41.7661 56.4963 41.7205 56.5614 41.6619C56.6298 41.6032 56.6852 41.5251 56.7275 41.4339C56.7666 41.346 56.7861 41.245 56.7861 41.1278V32.3875C56.7861 32.3419 56.7731 32.2963 56.7503 32.2572C56.7242 32.2182 56.6786 32.1823 56.6135 32.153C56.5484 32.1237 56.467 32.1042 56.3497 32.0912C56.2325 32.0781 56.0892 32.0684 55.9199 32.0684V32.0781ZM63.1004 32.1074H60.6548C60.4887 32.1074 60.3519 32.1595 60.2347 32.2572C60.1272 32.3517 60.0686 32.508 60.0686 32.7294V41.206C60.0686 41.4241 60.1272 41.587 60.2347 41.6846C60.3487 41.7823 60.4887 41.8279 60.6548 41.8279H63.2404C63.6279 41.8279 63.9861 41.8051 64.302 41.7595C64.6211 41.7107 64.924 41.6325 65.2008 41.5316C65.4841 41.4339 65.7381 41.3036 65.9693 41.1506C66.2038 40.9943 66.4056 40.8119 66.5685 40.5937C66.7411 40.3788 66.8713 40.1313 66.9658 39.8513C67.0602 39.5712 67.109 39.2586 67.109 38.9102C67.109 38.5617 67.0569 38.2817 66.956 38.0146C66.8583 37.7509 66.7215 37.5197 66.5457 37.3243C66.3763 37.1256 66.1712 36.9628 65.9367 36.8358C65.7055 36.7153 65.4548 36.6241 65.178 36.5753C65.3929 36.4939 65.585 36.3897 65.7478 36.2594C65.9204 36.1324 66.0637 35.9794 66.1777 35.81C66.2949 35.6407 66.3829 35.4518 66.4415 35.2467C66.5001 35.035 66.5326 34.8135 66.5326 34.5758C66.5326 34.1557 66.4578 33.791 66.308 33.4784C66.1582 33.169 65.94 32.9118 65.6534 32.7099C65.3734 32.5047 65.0249 32.3517 64.6113 32.2507C64.201 32.153 63.6963 32.1009 63.1004 32.1009V32.1074ZM62.0127 36.1129V33.5891H63.0124C63.3185 33.5891 63.5628 33.6152 63.7386 33.6738C63.9242 33.7259 64.0773 33.8073 64.1978 33.9148C64.3183 34.0125 64.4095 34.1395 64.4681 34.2958C64.5267 34.4521 64.5592 34.6247 64.5592 34.8233C64.5592 34.9992 64.5332 35.1652 64.4746 35.3281C64.4225 35.4811 64.3378 35.6211 64.2206 35.7416C64.1099 35.8589 63.9698 35.95 63.8005 36.0184C63.6279 36.0836 63.4032 36.1161 63.1166 36.1161H62.0127V36.1129ZM62.0127 40.3202V37.5555H63.185C63.5465 37.5555 63.8428 37.5913 64.0643 37.6532C64.289 37.7183 64.4746 37.8095 64.6211 37.93C64.7644 38.0537 64.8751 38.2035 64.9468 38.3826C65.0249 38.5585 65.0607 38.7571 65.0607 38.9818C65.0607 39.2065 65.0217 39.3889 64.9402 39.5614C64.8654 39.7243 64.7579 39.8676 64.6211 39.9848C64.4843 40.0922 64.3215 40.1769 64.1294 40.2388C63.947 40.2941 63.7158 40.3235 63.439 40.3235H62.0094L62.0127 40.3202ZM70.7074 32.0619C70.5153 32.0619 70.359 32.0716 70.232 32.0846C70.1082 32.0977 70.004 32.1205 69.9226 32.14C69.8477 32.1661 69.7924 32.1986 69.7565 32.2377C69.7272 32.2768 69.7142 32.3224 69.7142 32.3745V41.5576C69.7142 41.6065 69.7272 41.6521 69.7565 41.6912C69.7924 41.7335 69.8477 41.7661 69.9226 41.7889C70.0008 41.8149 70.0985 41.8344 70.2222 41.8507C70.3525 41.867 70.512 41.8735 70.7042 41.8735C70.8963 41.8735 71.0591 41.867 71.1829 41.8507C71.3066 41.8344 71.4075 41.8182 71.4824 41.7889C71.5606 41.7661 71.6127 41.7335 71.642 41.6912C71.6778 41.6521 71.6941 41.6065 71.6941 41.5576V32.3745C71.6941 32.3224 71.6778 32.28 71.642 32.2377C71.6127 32.1986 71.5606 32.1661 71.4824 32.14C71.4075 32.1172 71.3066 32.0977 71.1829 32.0846C71.0591 32.0684 70.8963 32.0619 70.7042 32.0619H70.7074ZM85.4982 32.1074H84.1696C83.9839 32.1074 83.8211 32.127 83.6811 32.1661C83.5411 32.2019 83.4173 32.2638 83.3131 32.3549C83.2122 32.4461 83.121 32.5601 83.0428 32.7066C82.9679 32.8532 82.893 33.0323 82.8344 33.2407L80.6233 39.0176L78.5196 33.2244C78.4578 33.016 78.3894 32.8401 78.308 32.7001C78.2265 32.5568 78.1289 32.4396 78.0084 32.3549C77.8879 32.2638 77.7446 32.2019 77.5818 32.1661C77.4157 32.127 77.217 32.1074 76.9891 32.1074H75.6963C75.4716 32.1074 75.2892 32.1758 75.1557 32.3093C75.0222 32.4461 74.9538 32.6415 74.9538 32.8955V41.5609C74.9538 41.6097 74.9668 41.6553 74.9896 41.6944C75.0222 41.7367 75.0743 41.7693 75.1394 41.7921C75.2176 41.8182 75.312 41.8377 75.4325 41.854C75.553 41.8703 75.7061 41.8768 75.8852 41.8768C76.074 41.8768 76.2206 41.8703 76.3378 41.854C76.4583 41.8377 76.556 41.8214 76.6309 41.7921C76.7058 41.7693 76.7579 41.7367 76.7839 41.6944C76.81 41.6553 76.8295 41.6097 76.8295 41.5609L76.8426 33.6477L79.5617 41.5511C79.578 41.6097 79.6073 41.6553 79.6529 41.6944C79.6985 41.7367 79.7571 41.7726 79.8352 41.8019C79.9134 41.8279 80.0176 41.8475 80.1348 41.854C80.2521 41.8703 80.3986 41.8768 80.5712 41.8768C80.7438 41.8768 80.8871 41.8735 81.0075 41.8605C81.128 41.8572 81.2257 41.8442 81.3006 41.8182C81.382 41.7921 81.4439 41.7595 81.4895 41.7172C81.5318 41.6749 81.5644 41.6195 81.5872 41.5511L84.4203 33.6477V41.5609C84.4203 41.6097 84.4366 41.6553 84.4659 41.6944C84.4952 41.7367 84.5473 41.7693 84.6157 41.7921C84.6873 41.8182 84.7785 41.8377 84.9023 41.854C85.0227 41.8703 85.1725 41.8768 85.3516 41.8768C85.5308 41.8768 85.6903 41.8703 85.8108 41.854C85.9313 41.8377 86.0257 41.8214 86.0974 41.7921C86.1723 41.7693 86.2244 41.7367 86.2472 41.6944C86.2797 41.6553 86.2928 41.6097 86.2928 41.5609V32.8955C86.2895 32.7718 86.27 32.661 86.2374 32.5666C86.2081 32.4657 86.1592 32.381 86.0941 32.3159C86.0322 32.2475 85.9541 32.1921 85.8564 32.1595C85.7587 32.1237 85.6447 32.1074 85.5079 32.1074H85.4982ZM92.9457 32.0619C92.6884 32.0619 92.4865 32.0684 92.3269 32.0781C92.1739 32.0814 92.0502 32.1009 91.959 32.1302C91.8743 32.1563 91.8092 32.1954 91.7701 32.2507C91.731 32.2996 91.6952 32.368 91.6659 32.4526L88.6667 41.0757C88.6081 41.2548 88.569 41.3916 88.556 41.499C88.5397 41.6032 88.556 41.6879 88.6048 41.7465C88.6569 41.8019 88.7449 41.8377 88.8751 41.854C89.0054 41.8703 89.1845 41.8768 89.4189 41.8768C89.6339 41.8768 89.8065 41.8735 89.9367 41.8605C90.0702 41.8507 90.1744 41.8344 90.2428 41.8084C90.3177 41.7791 90.3698 41.74 90.4024 41.6944C90.4382 41.6456 90.4643 41.5837 90.4871 41.5153L91.1025 39.6135H94.7563L95.4076 41.5674C95.4271 41.6325 95.4564 41.6846 95.4824 41.727C95.5118 41.7693 95.5639 41.7986 95.642 41.8247C95.7169 41.8475 95.8244 41.8572 95.9644 41.8605C96.1077 41.8735 96.3096 41.8768 96.5636 41.8768C96.8176 41.8768 97.0032 41.8703 97.1432 41.854C97.2833 41.8475 97.3842 41.8149 97.4363 41.7628C97.4917 41.7074 97.5112 41.626 97.4982 41.5218C97.4852 41.4144 97.4461 41.2711 97.3875 41.092L94.3818 32.4722C94.3492 32.3777 94.3134 32.3028 94.2678 32.2475C94.2255 32.1889 94.1571 32.153 94.0594 32.127C93.9617 32.0977 93.8282 32.0781 93.6523 32.0749C93.4765 32.0651 93.242 32.0586 92.9457 32.0586V32.0619ZM91.5421 38.0928L92.9261 33.9636L94.2971 38.0928H91.5421Z" fill="#4D4D4F"/>
<path d="M104.584 52.9157H30.4188C30.1908 52.9157 30.002 52.7301 30.002 52.4989C30.002 52.2676 30.1876 52.082 30.4188 52.082H104.588C104.816 52.082 105.004 52.2676 105.004 52.4989C105.004 52.7301 104.819 52.9157 104.588 52.9157H104.584Z" fill="#80C342"/>
<path d="M46.0631 65.1159C47.9714 65.1159 50.7817 65.295 53.338 65.9788V70.3718H47.1443C42.7155 70.3718 42.1391 74.26 42.1391 77.7183C42.1391 81.1767 42.7155 85.0649 47.1443 85.0649H53.338V89.4578C50.7817 90.1417 47.9714 90.3208 46.0631 90.3208C37.5996 90.3208 35.7988 83.8372 35.7988 77.7151C35.7988 71.593 37.5996 65.1094 46.0631 65.1094V65.1159Z" fill="#80C342"/>
<path d="M67.5661 65.4766C72.7146 65.4766 75.8505 68.6451 75.8505 73.761C75.8505 78.9094 72.682 81.8988 67.5661 81.8988H64.1078V89.965H58.0215V65.4766H67.5661ZM64.1078 70.6966V76.6755H66.5566C68.2142 76.6755 69.5102 75.9916 69.5102 73.7577C69.5102 71.5238 68.2142 70.6966 66.5566 70.6966H64.1078Z" fill="#80C342"/>
<path d="M98.4304 89.9677H91.7677L90.4716 84.9267H83.9522L82.692 89.9677H76.0293L82.8353 65.2969H91.5495L98.4271 89.9677H98.4304ZM84.9976 80.244H89.3905L87.1924 72.067H87.1566L84.9943 80.244H84.9976Z" fill="#80C342"/>
</g>
<defs>
<clipPath id="clip0_4978_19970">
<rect width="120" height="120" fill="white"/>
</clipPath>
</defs>
</svg>
